<svg id="Ebene_1" data-name="Ebene 1" xmlns="http://www.w3.org/2000/svg" xmlns:xlink="http://www.w3.org/1999/xlink" viewBox="0 0 604.95 457.62"><defs><style>.cls-1{fill:url(#Unbenannter_Verlauf_33);}.cls-2{fill:url(#Unbenannter_Verlauf_33-2);}.cls-3{fill:url(#Unbenannter_Verlauf_33-3);}.cls-4{fill:url(#Unbenannter_Verlauf_33-4);}.cls-5{fill:url(#Unbenannter_Verlauf_33-5);}.cls-6{fill:url(#Unbenannter_Verlauf_33-6);}.cls-7{fill:url(#Unbenannter_Verlauf_33-7);}.cls-8{fill:url(#Unbenannter_Verlauf_33-8);}.cls-9{fill:url(#Unbenannter_Verlauf_33-9);}.cls-10{fill:url(#Unbenannter_Verlauf_33-10);}</style><linearGradient id="Unbenannter_Verlauf_33" x1="2712.66" y1="1593.58" x2="3281.88" y2="1593.58" gradientUnits="userSpaceOnUse"><stop offset="0" stop-color="#31b1e7"/><stop offset="0.5" stop-color="#268cf5"/><stop offset="1" stop-color="#2f58f7"/></linearGradient><linearGradient id="Unbenannter_Verlauf_33-2" x1="2712.66" y1="1615.32" x2="3281.88" y2="1615.32" xlink:href="#Unbenannter_Verlauf_33"/><linearGradient id="Unbenannter_Verlauf_33-3" x1="2712.66" y1="1793.64" x2="3281.88" y2="1793.64" xlink:href="#Unbenannter_Verlauf_33"/><linearGradient id="Unbenannter_Verlauf_33-4" x1="2712.66" y1="1513.09" x2="3281.88" y2="1513.09" xlink:href="#Unbenannter_Verlauf_33"/><linearGradient id="Unbenannter_Verlauf_33-5" x1="2712.66" y1="1713.95" x2="3281.88" y2="1713.95" xlink:href="#Unbenannter_Verlauf_33"/><linearGradient id="Unbenannter_Verlauf_33-6" x1="2712.66" y1="1632.93" x2="3281.88" y2="1632.93" xlink:href="#Unbenannter_Verlauf_33"/><linearGradient id="Unbenannter_Verlauf_33-7" x1="2712.66" y1="1426.49" x2="3281.88" y2="1426.49" xlink:href="#Unbenannter_Verlauf_33"/><linearGradient id="Unbenannter_Verlauf_33-8" x1="2712.66" y1="1403" x2="3281.88" y2="1403" xlink:href="#Unbenannter_Verlauf_33"/><linearGradient id="Unbenannter_Verlauf_33-9" x1="2712.66" y1="1450.85" x2="3281.88" y2="1450.85" xlink:href="#Unbenannter_Verlauf_33"/><linearGradient id="Unbenannter_Verlauf_33-10" x1="2712.66" y1="1788.73" x2="3281.88" y2="1788.73" xlink:href="#Unbenannter_Verlauf_33"/></defs><title>icon</title><path class="cls-1" d="M3108.21,1788.4a301.42,301.42,0,0,0-73-119.77,261,261,0,0,0-152.82-74.72c-27.18-3.44-54.62-2-81.51,3h10.63q-3.2-1-6.33-2.27l-2.2-.89c-2.64-1,5.52,2.44,1.71.7-2-.91-4-1.81-5.93-2.79a147.18,147.18,0,0,1-13.87-7.87q-3.63-2.33-7.11-4.87c-0.61-.44-1.2-0.9-1.81-1.34-2-1.46,3.27,2.66,1.32,1-1.36-1.14-2.75-2.23-4.1-3.38a131.33,131.33,0,0,1-15.16-15.31c-0.58-.69-1.14-1.39-1.7-2.08-1.11-1.36-1.95-1.09.62,0.82-1.27-.95-2.34-3.21-3.24-4.53q-3.46-5.07-6.41-10.47-1.44-2.64-2.75-5.34-0.67-1.38-1.3-2.77c-0.23-.5-1.47-3.52-0.61-1.36,0.94,2.36-.52-1.44-0.72-2q-0.67-1.8-1.29-3.61-1.34-4-2.42-8c-1.15-4.35-2.68-9.24-2.84-13.76,0.15,4.18.16,1.32,0.07,0.36-0.12-1.34-.27-2.69-0.38-4q-0.28-3.5-.37-7a135.25,135.25,0,0,1,.35-13.6c0.15-1.93.36-3.86,0.56-5.78,0.36-3.46-.15,1.41-0.24,1.73a33.3,33.3,0,0,0,.53-3.37,133.67,133.67,0,0,1,3.56-15.31l-19.29,14.68,118.34-3.24c2.61-.07,5.29,0,7.89-0.22a29.13,29.13,0,0,0,12.68-4.22l12.95-7.46,25.89-14.91,25.89-14.91,12.95-7.46a26,26,0,0,1,2.59-1.49c-0.21-.18-3.74,1.26-1.85.6q1.37-.47,2.75-0.92,7.22-2.34,14.64-4,4.21-.93,8.46-1.63c0.87-.14,1.74-0.25,2.6-0.41,2.23-.41-2,0.25-2,0.25,2.1-.06,4.26-0.49,6.35-0.67a150,150,0,0,1,23.55-.17c2,0.14,4,.36,5.94.55,0.87,0.09,3.82.68-.11,0,0.88,0.16,1.76.28,2.64,0.43a140.75,140.75,0,0,1,14.43,3.25q6.41,1.8,12.63,4.21c0.52,0.2,4,1.66,1.74.68-2.06-.9.58,0.28,0.82,0.39,2.29,1.08,4.56,2.16,6.8,3.33a148,148,0,0,1,18.95,11.91c3.69,2.71-2.08-1.77.54,0.42,1.07,0.89,2.16,1.76,3.22,2.66a110,110,0,0,1,9.05,9.11l20.4,21.9q40.78,43.8,81.51,87.66,20.37,21.92,40.75,43.83l20.39,21.9,10.2,10.95,4.76,5.11a18.24,18.24,0,0,1,2,2.19c-2.84-4.41.57,2.63-.92-0.9-1.1-2.6.83,2.36,1.08,3.11q0.92,2.75,1.62,5.56,0.61,2.43,1.05,4.89c0.14,0.76.48,3.86,0.18,0.84-0.33-3.37.07,1.26,0.09,1.54a76,76,0,0,1,.11,9.75c0,0.92-.14,1.84-0.2,2.76-0.07,1.19.49,2.09,0.05,0.08-0.52-2.43.09-.56-0.14,0.74q-0.29,1.68-.65,3.36a76.34,76.34,0,0,1-2.59,9.14,13.38,13.38,0,0,0-.94,2.53s1.66-3.66.71-1.67c-0.87,1.82-1.71,3.64-2.67,5.41-1.5,2.74-3.22,5.3-5,7.88-2,2.87,2.46-2.69-.58.62-1.34,1.47-2.65,2.94-4.08,4.33-1.11,1.08-2.27,2.08-3.42,3.1-3.36,3,2.27-1.35-.66.5s-6,3.73-9.18,5.36,3.87-1.39-.82.33q-2.22.81-4.49,1.46t-4.59,1.14c-0.88.19-1.78,0.3-2.66,0.51-2.55.6,5.13-.44,0.61-0.07a84.67,84.67,0,0,1-9.54.34q-2.4-.07-4.8-0.3c-1-.1-3.36-1-0.76-0.06,2.84,1.07-.73-0.18-1.43-0.32a76.35,76.35,0,0,1-9.42-2.49c-0.89-.3-5.49-2-2.86-1s-0.17-.1-0.84-0.42q-1.6-.76-3.17-1.59c-3-1.58-5.71-3.42-8.5-5.27-2.57-1.71.78,0,.59,0.5,0-.06-1.55-1.29-1.68-1.4q-2.51-2.15-4.82-4.51c-0.69-.7-1.38-1.42-2-2.16,0.42,0.48,1.49,2.45.52,0.42a57,57,0,0,0-3.77-5.85l-8.62-13.38-32.34-50.17L3054.4,1528.4l-16.17-25.09c-5.66-8.78-18-13.2-27.36-7.18-8.78,5.66-13.24,18-7.18,27.36L3127.14,1715c17.64,27.36,50.71,44,83.39,41.56,31.19-2.3,59.59-20.15,73.26-48.72,6.74-14.1,10.59-29.48,10.13-45.19a98.44,98.44,0,0,0-3.49-23.5,96.19,96.19,0,0,0-4.15-11.37,48.64,48.64,0,0,0-10.08-14.89q-38.78-41.59-77.47-83.25t-77.43-83.28c-11.51-12.37-22.42-26.13-35.69-36.64a174.29,174.29,0,0,0-43.84-25.58c-30.74-12.38-65.35-13.56-97.49-6.45q-7,1.55-13.88,3.74c-7.12,2.27-13.39,5.85-19.85,9.57l-50.06,28.83-24.17,13.92,10.09-2.73-126.23,3.45a20.54,20.54,0,0,0-19.29,14.68c-12.41,42.05-6.2,90.14,19.09,126.32a161,161,0,0,0,77.62,58.88c1.09,0.39,2.19.83,3.3,1.13,6.07,1.65,12.76-.46,18.88-1.4,1-.16,2.06-0.27,3.08-0.45-0.17,0-5.4.68-2.09,0.29,2.11-.25,4.21-0.5,6.32-0.71q7.35-.73,14.73-1a245.29,245.29,0,0,1,31.51.75q2.46,0.22,4.92.49c0.75,0.08,6.33.79,1.38,0.12q4.3,0.59,8.58,1.35,9.89,1.74,19.61,4.32,9.39,2.49,18.55,5.76c3.24,1.16,6.44,2.42,9.64,3.68,0.77,0.3,3.51,1.56-.12-0.06,2,0.9,4,1.78,6,2.71A235.54,235.54,0,0,1,2970.4,1667q6.57,4.25,12.85,8.93c0.72,0.53,1.44,1.17,2.19,1.65-4.46-2.81-.77-0.58.19,0.18q3,2.43,6,5,9.59,8.16,18.33,17.25,7.85,8.16,15,17c1.75,2.15,3.46,4.32,5.17,6.5,0.36,0.46,1.55,2.19-.06-0.08-2.06-2.91,2.32,3.15,2.72,3.7q3.35,4.61,6.51,9.35a269.67,269.67,0,0,1,19.89,35.5c1.24,2.67,2.57,5.36,3.61,8.12-1.92-5-.26-0.55.13,0.41q0.75,1.87,1.48,3.76,2.82,7.33,5.21,14.8c3.21,9.94,14,17.4,24.6,14,9.95-3.22,17.41-13.94,14-24.6h0Z" transform="translate(-2694.7 -1369.51)"/><path class="cls-2" d="M2836.53,1597.94c-5.2-7.32-11.6-12.83-20.5-15.11a33.8,33.8,0,0,0-25.64,3.88c-15.54,9.56-20.73,30.49-11.23,46.14s30.5,20.56,46.14,11.23c15.88-9.47,20.35-30.5,11.23-46.14-5.27-9-18.29-13-27.36-7.18s-12.81,17.69-7.18,27.36c2.05,3.53-1-3.94-.16-0.33q-0.49-5.08-.41-1.83l0.42-3c-0.9,3.66,2.44-3.62.28-.48q2.86-3.38,1.29-1.73t1.69-1.19c-3.33,2.2,4.07-1.05.33-.16q4.79-.45,2.41-0.41t2.44,0.42c-3.66-.91,3.63,2.44.48,0.28q3.38,2.86,1.73,1.29t1.19,1.69c-2.07-3.07,1,4.09.16,0.33l0.41,3q0.08-3.26-.42,1.85c0.81-3.49-2.49,3.66-.28.48l-1.71,2.16q2.25-2.17-1.28.76c3.07-2.07-4.09,1-.33.16l-3,.41q2.5,0.08-.35-0.21-2.82-.48-0.39.08-4.14-2-2.11-.86t-1.65-1.43q2.17,2.25-.76-1.28c6,8.51,17.73,13.39,27.36,7.18C2837.8,1619.86,2843,1607.06,2836.53,1597.94Z" transform="translate(-2694.7 -1369.51)"/><path class="cls-3" d="M3118,1776.26c-5.2-7.32-11.6-12.83-20.5-15.11a33.8,33.8,0,0,0-25.64,3.88c-15.54,9.56-20.73,30.49-11.23,46.14s30.5,20.56,46.14,11.23c15.88-9.47,20.35-30.5,11.23-46.14-5.27-9-18.29-13-27.36-7.18s-12.81,17.69-7.18,27.36c2.05,3.53-1-3.94-.16-0.33q-0.49-5.08-.41-1.83l0.42-3c-0.9,3.66,2.44-3.62.28-.48q2.86-3.38,1.29-1.73t1.69-1.19c-3.33,2.2,4.07-1.05.33-.16q4.79-.45,2.41-0.41t2.44,0.42c-3.66-.91,3.63,2.44.48,0.28q3.38,2.86,1.73,1.29t1.19,1.69c-2.07-3.07,1,4.09.16,0.33l0.41,3q0.08-3.26-.42,1.85c0.81-3.49-2.49,3.66-.28.48l-1.71,2.16q2.25-2.17-1.28.76c3.07-2.07-4.09,1-.33.16l-3,.41q2.5,0.08-.35-0.21-2.82-.48-0.39.08-4.14-2-2.11-.86t-1.65-1.43q2.17,2.25-.76-1.28c6,8.51,17.73,13.39,27.36,7.18C3119.23,1798.18,3124.44,1785.38,3118,1776.26Z" transform="translate(-2694.7 -1369.51)"/><path class="cls-4" d="M3050.66,1495.71c-5.2-7.32-11.6-12.83-20.5-15.11a33.8,33.8,0,0,0-25.64,3.88c-15.54,9.56-20.73,30.49-11.23,46.14s30.5,20.56,46.14,11.23c15.88-9.47,20.35-30.5,11.23-46.14-5.27-9-18.29-13-27.36-7.18s-12.81,17.69-7.18,27.36c2.05,3.53-1-3.94-.16-0.33q-0.49-5.08-.41-1.83l0.42-3c-0.9,3.66,2.44-3.62.28-.48q2.86-3.38,1.29-1.73t1.69-1.19c-3.33,2.2,4.07-1.05.33-.16q4.79-.45,2.41-0.41t2.44,0.42c-3.66-.91,3.63,2.44.48,0.28q3.38,2.86,1.73,1.29t1.19,1.69c-2.07-3.07,1,4.09.16,0.33l0.41,3q0.08-3.26-.42,1.85c0.81-3.49-2.49,3.66-.28.48l-1.71,2.16q2.25-2.17-1.28.76c3.07-2.07-4.09,1-.33.16l-3,.41q2.5,0.08-.35-0.21-2.82-.48-0.39.08-4.14-2-2.11-.86t-1.65-1.43q2.17,2.25-.76-1.28c6,8.51,17.73,13.39,27.36,7.18C3051.93,1517.63,3057.13,1504.83,3050.66,1495.71Z" transform="translate(-2694.7 -1369.51)"/><path class="cls-5" d="M3180.14,1696.57c-5.2-7.32-11.6-12.83-20.5-15.11a33.8,33.8,0,0,0-25.64,3.88c-15.54,9.56-20.73,30.49-11.23,46.14s30.5,20.56,46.14,11.23c15.88-9.47,20.35-30.5,11.23-46.14-5.27-9-18.29-13-27.36-7.18s-12.81,17.69-7.18,27.36c2.05,3.53-1-3.94-.16-0.33q-0.49-5.08-.41-1.83l0.42-3c-0.9,3.66,2.44-3.62.28-.48q2.86-3.38,1.29-1.73t1.69-1.19c-3.33,2.2,4.07-1.05.33-.16q4.79-.45,2.41-0.41t2.44,0.42c-3.66-.91,3.63,2.44.48,0.28q3.38,2.86,1.73,1.29t1.19,1.69c-2.07-3.07,1,4.09.16,0.33l0.41,3q0.08-3.26-.42,1.85c0.81-3.49-2.49,3.66-.28.48l-1.71,2.16q2.25-2.17-1.28.76c3.07-2.07-4.09,1-.33.16l-3,.41q2.5,0.08-.35-0.21-2.82-.48-0.39.08-4.14-2-2.11-.86t-1.65-1.43q2.17,2.25-.76-1.28c6,8.51,17.73,13.39,27.36,7.18C3181.41,1718.49,3186.62,1705.69,3180.14,1696.57Z" transform="translate(-2694.7 -1369.51)"/><path class="cls-6" d="M3295,1615.55c-5.2-7.32-11.6-12.83-20.5-15.11a33.8,33.8,0,0,0-25.64,3.88c-15.54,9.56-20.73,30.49-11.23,46.14s30.5,20.56,46.14,11.23c15.88-9.47,20.35-30.5,11.23-46.14-5.27-9-18.29-13-27.36-7.18s-12.81,17.69-7.18,27.36c2.05,3.53-1-3.94-.16-0.33q-0.49-5.08-.41-1.83l0.42-3c-0.9,3.66,2.44-3.62.28-.48q2.86-3.38,1.29-1.73t1.69-1.19c-3.33,2.2,4.07-1.05.33-.16q4.79-.45,2.41-0.41t2.44,0.42c-3.66-.91,3.63,2.44.48,0.28q3.38,2.86,1.73,1.29t1.19,1.69c-2.07-3.07,1,4.09.16,0.33l0.41,3q0.08-3.26-.42,1.85c0.81-3.49-2.49,3.66-.28.48l-1.71,2.16q2.25-2.17-1.28.76c3.07-2.07-4.09,1-.33.16l-3,.41q2.5,0.08-.35-0.21-2.82-.48-0.39.08-4.14-2-2.11-.86t-1.65-1.43q2.17,2.25-.76-1.28c6,8.51,17.73,13.39,27.36,7.18C3296.25,1637.47,3301.45,1624.67,3295,1615.55Z" transform="translate(-2694.7 -1369.51)"/><path class="cls-7" d="M3104.38,1409.11c-5.2-7.32-11.6-12.83-20.5-15.11a33.8,33.8,0,0,0-25.64,3.88c-15.54,9.56-20.73,30.49-11.23,46.14s30.5,20.56,46.14,11.23c15.88-9.47,20.35-30.5,11.23-46.14-5.27-9-18.29-13-27.36-7.18s-12.81,17.69-7.18,27.36c2.05,3.53-1-3.94-.16-0.33q-0.49-5.08-.41-1.83l0.42-3c-0.9,3.66,2.44-3.62.28-.48q2.86-3.38,1.29-1.73t1.69-1.19c-3.33,2.2,4.07-1.05.33-.16q4.79-.45,2.41-0.41t2.44,0.42c-3.66-.91,3.63,2.44.48,0.28q3.38,2.86,1.73,1.29t1.19,1.69c-2.07-3.07,1,4.09.16,0.33l0.41,3q0.08-3.26-.42,1.85c0.81-3.49-2.49,3.66-.28.48l-1.71,2.16q2.25-2.17-1.28.76c3.07-2.07-4.09,1-.33.16l-3,.41q2.5,0.08-.35-0.21-2.82-.48-0.39.08-4.14-2-2.11-.86t-1.65-1.43q2.17,2.25-.76-1.28c6,8.51,17.73,13.39,27.36,7.18C3105.65,1431,3110.85,1418.23,3104.38,1409.11Z" transform="translate(-2694.7 -1369.51)"/><path class="cls-8" d="M2958.69,1385.63c-5.2-7.32-11.6-12.83-20.5-15.11a33.8,33.8,0,0,0-25.64,3.88c-15.54,9.56-20.73,30.49-11.23,46.14s30.5,20.56,46.14,11.23c15.88-9.47,20.35-30.5,11.23-46.14-5.27-9-18.29-13-27.36-7.18s-12.81,17.69-7.18,27.36c2.05,3.53-1-3.94-.16-0.33q-0.49-5.08-.41-1.83l0.42-3c-0.9,3.66,2.44-3.62.28-.48q2.86-3.38,1.29-1.73t1.69-1.19c-3.33,2.2,4.07-1.05.33-.16q4.79-.45,2.41-0.41t2.44,0.42c-3.66-.91,3.63,2.44.48,0.28q3.38,2.86,1.73,1.29t1.19,1.69c-2.07-3.07,1,4.09.16,0.33l0.41,3q0.08-3.26-.42,1.85c0.81-3.49-2.49,3.66-.28.48l-1.71,2.16q2.25-2.17-1.28.76c3.07-2.07-4.09,1-.33.16l-3,.41q2.5,0.08-.35-0.21-2.82-.48-0.39.08-4.14-2-2.11-.86t-1.65-1.43q2.17,2.25-.76-1.28c6,8.51,17.73,13.39,27.36,7.18C2960,1407.54,2965.17,1394.75,2958.69,1385.63Z" transform="translate(-2694.7 -1369.51)"/><path class="cls-9" d="M2875.54,1433.47c-5.2-7.32-11.6-12.83-20.5-15.11a33.8,33.8,0,0,0-25.64,3.88c-15.54,9.56-20.73,30.49-11.23,46.14s30.5,20.56,46.14,11.23c15.88-9.47,20.35-30.5,11.23-46.14-5.27-9-18.29-13-27.36-7.18s-12.81,17.69-7.18,27.36c2.05,3.53-1-3.94-.16-0.33q-0.49-5.08-.41-1.83l0.42-3c-0.9,3.66,2.44-3.62.28-.48q2.86-3.38,1.29-1.73t1.69-1.19c-3.33,2.2,4.07-1.05.33-.16q4.79-.45,2.41-0.41t2.44,0.42c-3.66-.91,3.63,2.44.48,0.28q3.38,2.86,1.73,1.29t1.19,1.69c-2.07-3.07,1,4.09.16,0.33l0.41,3q0.08-3.26-.42,1.85c0.81-3.49-2.49,3.66-.28.48l-1.71,2.16q2.25-2.17-1.28.76c3.07-2.07-4.09,1-.33.16l-3,.41q2.5,0.08-.35-0.21-2.82-.48-0.39.08-4.14-2-2.11-.86t-1.65-1.43q2.17,2.25-.76-1.28c6,8.51,17.73,13.39,27.36,7.18C2876.82,1455.39,2882,1442.59,2875.54,1433.47Z" transform="translate(-2694.7 -1369.51)"/><path class="cls-10" d="M3087.72,1808.73c10.46,0,20.48-9.2,20-20s-8.79-20-20-20c-10.46,0-20.48,9.2-20,20s8.79,20,20,20h0Z" transform="translate(-2694.7 -1369.51)"/></svg>